<svg width="32" height="32" viewBox="0 0 32 32" fill="none" xmlns="http://www.w3.org/2000/svg">
<g clip-path="url(#clip0_107_39)">
<path d="M31.1811 31.3259H24.6803C24.2204 31.3259 23.8488 30.9543 23.8488 30.4945V20.0252C23.8488 16.4346 21.9968 16.4346 21.3858 16.4346C19.7417 16.4346 19.0425 17.7323 18.8157 18.2929C18.7086 18.5449 18.6582 18.9732 18.6582 19.5717V30.5008C18.6582 30.9607 18.2866 31.3323 17.8267 31.3323H11.3197C11.0992 31.3323 10.885 31.2441 10.7275 31.0867C10.5701 30.9292 10.4819 30.715 10.4882 30.4945C10.4882 30.3182 10.5763 12.7622 10.4882 10.967C10.4756 10.7402 10.5574 10.5197 10.7149 10.3559C10.8724 10.1922 11.0866 10.0977 11.3196 10.0977H17.8267C18.2866 10.0977 18.6582 10.4693 18.6582 10.9291V11.4205C19.7543 10.4441 21.3354 9.63778 23.6913 9.63778C28.9007 9.63778 32.0125 13.2409 32.0125 19.2756V30.4945C32.0125 30.9543 31.6409 31.3259 31.1811 31.3259V31.3259ZM25.5118 29.663L30.3559 29.6629V19.2755C30.3559 14.2046 27.9307 11.3007 23.6976 11.3007C20.8692 11.3007 19.496 12.7117 18.633 14.0031C18.5323 14.3432 18.211 14.5952 17.833 14.5952H17.789C17.4866 14.5952 17.2094 14.4314 17.0646 14.1669C16.9512 13.959 16.926 13.7196 17.0016 13.4991V11.7543H12.1701C12.2142 15.2252 12.1701 26.4567 12.1575 29.6567H16.9953V19.5653C16.9953 18.7275 17.0834 18.1228 17.2724 17.663C18.0031 15.8551 19.5401 14.7653 21.3795 14.7653C24 14.7653 25.5054 16.6803 25.5054 20.0189V29.663H25.5118L25.5118 29.663ZM7.72281 31.3258H1.21572C0.755876 31.3258 0.384251 30.9542 0.384251 30.4943V10.9291C0.384251 10.4692 0.755876 10.0976 1.21572 10.0976H7.72281C8.18266 10.0976 8.55428 10.4692 8.55428 10.929V30.4944C8.55428 30.9542 8.18266 31.3259 7.72281 31.3259V31.3258ZM2.04725 29.6629H6.89131V11.7605H2.04728V29.6629L2.04725 29.6629ZM4.47241 9.08965L4.42828 9.08962C1.8645 9.08962 -6.10352e-05 7.31325 -6.10352e-05 4.86916C-6.10352e-05 2.43137 1.896 0.654968 4.51647 0.654968C7.09285 0.654968 8.93225 2.38094 8.98266 4.85025C8.98266 7.31325 7.0866 9.08962 4.47241 9.08962V9.08965ZM4.51647 2.32428C2.80938 2.32428 1.66294 3.35106 1.66294 4.8755C1.66294 6.37469 2.79681 7.42666 4.42831 7.42666H4.47238C6.17319 7.42666 7.31963 6.39987 7.31963 4.87547C7.28813 3.33216 6.18578 2.32428 4.51647 2.32428V2.32428Z" fill="#464646"/>
</g>
<defs>
<clipPath id="clip0_107_39">
<rect width="32" height="32" fill="white"/>
</clipPath>
</defs>
</svg>
